<?xml version="1.0" encoding="UTF-8" standalone="no"?>
<svg
   width="208"
   height="100"
   viewBox="0 0 208 100"
   fill="none"
   version="1.1"
   id="svg42"
   xml:space="preserve"
   xmlns="http://www.w3.org/2000/svg"
   xmlns:svg="http://www.w3.org/2000/svg"><defs
     id="defs42" /><g
     id="g43"><path
       fill-rule="evenodd"
       clip-rule="evenodd"
       d="m 110.151,73.9298 c -1.699,-0.8321 -2.942,-2.0634 -3.734,-3.6973 l 2.856,-1.9687 c 0.497,1.2839 1.361,2.2464 2.591,2.8883 1.231,0.6411 2.68,0.9625 4.351,0.9625 1.726,0 3.044,-0.3071 3.953,-0.9196 0.908,-0.6116 1.361,-1.3839 1.361,-2.3187 0,-0.8438 -0.424,-1.5224 -1.273,-2.0331 -0.851,-0.5116 -2.344,-0.9562 -4.482,-1.3348 -2.108,-0.3777 -3.777,-0.8384 -5.007,-1.3795 -1.231,-0.5384 -2.125,-1.2241 -2.681,-2.0553 -0.556,-0.8304 -0.833,-1.859 -0.833,-3.0831 0,-1.1964 0.35,-2.2901 1.053,-3.2821 0.704,-0.9911 1.714,-1.7857 3.031,-2.3839 1.318,-0.5982 2.841,-0.8982 4.569,-0.8982 2.343,0 4.225,0.4303 5.646,1.2901 1.42,0.8616 2.438,2.1822 3.052,3.9607 l -2.987,1.7492 c -0.468,-1.3992 -1.179,-2.4045 -2.13,-3.0188 -0.952,-0.6125 -2.146,-0.917 -3.581,-0.917 -1.435,0 -2.65,0.3206 -3.645,0.9608 -0.997,0.6437 -1.494,1.3866 -1.494,2.2321 0,0.9625 0.431,1.7054 1.296,2.2304 0.863,0.525 2.408,0.9785 4.635,1.3562 3.044,0.4973 5.198,1.2402 6.458,2.2321 1.257,0.9911 1.888,2.3911 1.888,4.2 0,1.2536 -0.373,2.3697 -1.12,3.3465 -0.747,0.9777 -1.816,1.7437 -3.207,2.2964 -1.391,0.5545 -3.009,0.8313 -4.855,0.8313 -2.108,0 -4.012,-0.4143 -5.711,-1.2465 z"
       fill="#0a2133"
       id="path1" /><path
       fill-rule="evenodd"
       clip-rule="evenodd"
       d="m 140.617,70.8013 c 1.332,-0.8741 1.999,-2.0125 1.999,-3.4125 v -3.0187 l -4.921,0.9187 c -1.961,0.3509 -3.426,0.8527 -4.393,1.5108 -0.965,0.6553 -1.449,1.4937 -1.449,2.5142 0,0.9054 0.351,1.5974 1.054,2.0786 0.704,0.4813 1.684,0.7223 2.944,0.7223 1.844,0 3.433,-0.4384 4.766,-1.3134 z m 8.941,1.1822 -0.22,2.7553 c -0.82,0.2911 -1.7,0.4375 -2.637,0.4375 -1.141,0 -2.042,-0.2473 -2.702,-0.7428 -0.658,-0.4964 -1.076,-1.3268 -1.252,-2.4938 -0.674,1.0206 -1.663,1.8161 -2.965,2.384 -1.303,0.5687 -2.672,0.8526 -4.107,0.8526 -2.168,0 -3.954,-0.5017 -5.36,-1.508 -1.406,-1.0062 -2.109,-2.4571 -2.109,-4.3545 0,-1.6616 0.733,-3.0991 2.197,-4.3089 1.464,-1.2107 3.587,-2.0491 6.37,-2.5152 l 5.843,-0.9625 v -1.2259 c 0,-1.458 -0.454,-2.6241 -1.362,-3.5 -0.908,-0.875 -2.168,-1.3107 -3.778,-1.3107 -1.465,0 -2.731,0.3482 -3.8,1.0491 -1.07,0.7 -1.896,1.7358 -2.482,3.1063 l -2.591,-1.8822 c 0.584,-1.6321 1.675,-2.9312 3.272,-3.8937 1.596,-0.9625 3.462,-1.4438 5.601,-1.4438 2.606,0 4.7,0.6277 6.282,1.8813 1.582,1.2545 2.372,3.1062 2.372,5.5562 v 10.7634 c 0,0.525 0.132,0.9188 0.396,1.1804 0.263,0.2634 0.687,0.3937 1.274,0.3937 0.585,0 1.17,-0.0714 1.758,-0.2178 z"
       fill="#0a2133"
       id="path2" /><path
       fill-rule="evenodd"
       clip-rule="evenodd"
       d="m 156.234,68.8761 c 0,1.1089 0.168,1.875 0.505,2.2982 0.336,0.4223 0.959,0.633 1.867,0.633 0.616,0 1.15,-0.0437 1.604,-0.1303 0.453,-0.0875 0.988,-0.2483 1.603,-0.4813 l -0.571,3.3688 c -0.966,0.408 -2.05,0.6125 -3.251,0.6125 -1.786,0 -3.112,-0.4813 -3.976,-1.4447 -0.863,-0.9625 -1.295,-2.4339 -1.295,-4.4187 V 42.802 h 3.514 z"
       fill="#0a2133"
       id="path3" /><path
       fill-rule="evenodd"
       clip-rule="evenodd"
       d="m 175.41,70.8013 c 1.332,-0.8741 1.999,-2.0125 1.999,-3.4125 v -3.0187 l -4.921,0.9187 c -1.961,0.3509 -3.426,0.8527 -4.393,1.5108 -0.965,0.6553 -1.449,1.4937 -1.449,2.5142 0,0.9054 0.351,1.5974 1.054,2.0786 0.704,0.4813 1.684,0.7223 2.944,0.7223 1.844,0 3.433,-0.4384 4.766,-1.3134 z m 8.941,1.1822 -0.22,2.7553 c -0.82,0.2911 -1.7,0.4375 -2.637,0.4375 -1.141,0 -2.042,-0.2473 -2.702,-0.7428 -0.658,-0.4964 -1.076,-1.3268 -1.252,-2.4938 -0.674,1.0206 -1.663,1.8161 -2.965,2.384 -1.303,0.5687 -2.672,0.8526 -4.107,0.8526 -2.168,0 -3.954,-0.5017 -5.36,-1.508 -1.406,-1.0062 -2.109,-2.4571 -2.109,-4.3545 0,-1.6616 0.733,-3.0991 2.197,-4.3089 1.464,-1.2107 3.587,-2.0491 6.37,-2.5152 l 5.843,-0.9625 v -1.2259 c 0,-1.458 -0.454,-2.6241 -1.362,-3.5 -0.908,-0.875 -2.168,-1.3107 -3.778,-1.3107 -1.465,0 -2.731,0.3482 -3.8,1.0491 -1.07,0.7 -1.896,1.7358 -2.482,3.1063 l -2.591,-1.8822 c 0.584,-1.6321 1.675,-2.9312 3.272,-3.8937 1.596,-0.9625 3.462,-1.4438 5.601,-1.4438 2.606,0 4.7,0.6277 6.282,1.8813 1.582,1.2545 2.372,3.1062 2.372,5.5562 v 10.7634 c 0,0.525 0.132,0.9188 0.396,1.1804 0.263,0.2634 0.687,0.3937 1.274,0.3937 0.585,0 1.17,-0.0714 1.758,-0.2178 z"
       fill="#0a2133"
       id="path4" /><path
       fill-rule="evenodd"
       clip-rule="evenodd"
       d="m 201.812,69.9277 c 1.244,-1.4598 1.867,-3.4125 1.867,-5.8625 v -0.525 c 0,-2.45 -0.623,-4.4054 -1.867,-5.8634 -1.245,-1.458 -2.922,-2.1866 -5.03,-2.1866 -2.138,0 -3.822,0.75 -5.052,2.2536 -1.23,1.5008 -1.846,3.5205 -1.846,6.058 0,2.5366 0.616,4.558 1.846,6.0598 1.23,1.5027 2.914,2.2527 5.052,2.2527 2.108,0 3.785,-0.7286 5.03,-2.1866 z m 5.382,-27.1259 v 31.9375 h -3.076 l -0.22,-3.8054 c -0.644,1.2831 -1.632,2.3107 -2.965,3.0831 -1.333,0.7723 -2.848,1.1598 -4.547,1.1598 -3.074,0 -5.513,-1.0134 -7.314,-3.0393 -1.801,-2.0286 -2.702,-4.8062 -2.702,-8.3357 0,-3.5286 0.901,-6.3063 2.702,-8.3339 1.801,-2.0268 4.24,-3.042 7.314,-3.042 1.61,0 3.054,0.3509 4.328,1.05 1.274,0.7009 2.263,1.6339 2.965,2.8009 v -13.475 z"
       fill="#0a2133"
       id="path5" /><path
       fill-rule="evenodd"
       clip-rule="evenodd"
       d="m 110.151,73.9298 c -1.699,-0.8321 -2.942,-2.0634 -3.734,-3.6973 l 2.856,-1.9687 c 0.497,1.2839 1.361,2.2464 2.591,2.8883 1.231,0.6411 2.68,0.9625 4.351,0.9625 1.726,0 3.044,-0.3071 3.953,-0.9196 0.908,-0.6116 1.361,-1.3839 1.361,-2.3187 0,-0.8438 -0.424,-1.5224 -1.273,-2.0331 -0.851,-0.5116 -2.344,-0.9562 -4.482,-1.3348 -2.108,-0.3777 -3.777,-0.8384 -5.007,-1.3795 -1.231,-0.5384 -2.125,-1.2241 -2.681,-2.0553 -0.556,-0.8304 -0.833,-1.859 -0.833,-3.0831 0,-1.1964 0.35,-2.2901 1.053,-3.2821 0.704,-0.9911 1.714,-1.7857 3.031,-2.3839 1.318,-0.5982 2.841,-0.8982 4.569,-0.8982 2.343,0 4.225,0.4303 5.646,1.2901 1.42,0.8616 2.438,2.1822 3.052,3.9607 l -2.987,1.7492 c -0.468,-1.3992 -1.179,-2.4045 -2.13,-3.0188 -0.952,-0.6125 -2.146,-0.917 -3.581,-0.917 -1.435,0 -2.65,0.3206 -3.645,0.9608 -0.997,0.6437 -1.494,1.3866 -1.494,2.2321 0,0.9625 0.431,1.7054 1.296,2.2304 0.863,0.525 2.408,0.9785 4.635,1.3562 3.044,0.4973 5.198,1.2402 6.458,2.2321 1.257,0.9911 1.888,2.3911 1.888,4.2 0,1.2536 -0.373,2.3697 -1.12,3.3465 -0.747,0.9777 -1.816,1.7437 -3.207,2.2964 -1.391,0.5545 -3.009,0.8313 -4.855,0.8313 -2.108,0 -4.012,-0.4143 -5.711,-1.2465 z"
       fill="#0A2133"
       id="path6"
       style="fill:#b2d530;fill-opacity:1" /><path
       fill-rule="evenodd"
       clip-rule="evenodd"
       d="m 140.617,70.8013 c 1.332,-0.8741 1.999,-2.0125 1.999,-3.4125 v -3.0187 l -4.921,0.9187 c -1.961,0.3509 -3.426,0.8527 -4.393,1.5108 -0.965,0.6553 -1.449,1.4937 -1.449,2.5142 0,0.9054 0.351,1.5974 1.054,2.0786 0.704,0.4813 1.684,0.7223 2.944,0.7223 1.844,0 3.433,-0.4384 4.766,-1.3134 z m 8.941,1.1822 -0.22,2.7553 c -0.82,0.2911 -1.7,0.4375 -2.637,0.4375 -1.141,0 -2.042,-0.2473 -2.702,-0.7428 -0.658,-0.4964 -1.076,-1.3268 -1.252,-2.4938 -0.674,1.0206 -1.663,1.8161 -2.965,2.384 -1.303,0.5687 -2.672,0.8526 -4.107,0.8526 -2.168,0 -3.954,-0.5017 -5.36,-1.508 -1.406,-1.0062 -2.109,-2.4571 -2.109,-4.3545 0,-1.6616 0.733,-3.0991 2.197,-4.3089 1.464,-1.2107 3.587,-2.0491 6.37,-2.5152 l 5.843,-0.9625 v -1.2259 c 0,-1.458 -0.454,-2.6241 -1.362,-3.5 -0.908,-0.875 -2.168,-1.3107 -3.778,-1.3107 -1.465,0 -2.731,0.3482 -3.8,1.0491 -1.07,0.7 -1.896,1.7358 -2.482,3.1063 l -2.591,-1.8822 c 0.584,-1.6321 1.675,-2.9312 3.272,-3.8937 1.596,-0.9625 3.462,-1.4438 5.601,-1.4438 2.606,0 4.7,0.6277 6.282,1.8813 1.582,1.2545 2.372,3.1062 2.372,5.5562 v 10.7634 c 0,0.525 0.132,0.9188 0.396,1.1804 0.263,0.2634 0.687,0.3937 1.274,0.3937 0.585,0 1.17,-0.0714 1.758,-0.2178 z"
       fill="#0A2133"
       id="path7"
       style="fill:#b2d530;fill-opacity:1" /><path
       fill-rule="evenodd"
       clip-rule="evenodd"
       d="m 156.234,68.8761 c 0,1.1089 0.168,1.875 0.505,2.2982 0.336,0.4223 0.959,0.633 1.867,0.633 0.616,0 1.15,-0.0437 1.604,-0.1303 0.453,-0.0875 0.988,-0.2483 1.603,-0.4813 l -0.571,3.3688 c -0.966,0.408 -2.05,0.6125 -3.251,0.6125 -1.786,0 -3.112,-0.4813 -3.976,-1.4447 -0.863,-0.9625 -1.295,-2.4339 -1.295,-4.4187 V 42.802 h 3.514 z"
       fill="#0A2133"
       id="path8"
       style="fill:#b2d530;fill-opacity:1" /><path
       fill-rule="evenodd"
       clip-rule="evenodd"
       d="m 175.41,70.8013 c 1.332,-0.8741 1.999,-2.0125 1.999,-3.4125 v -3.0187 l -4.921,0.9187 c -1.961,0.3509 -3.426,0.8527 -4.393,1.5108 -0.965,0.6553 -1.449,1.4937 -1.449,2.5142 0,0.9054 0.351,1.5974 1.054,2.0786 0.704,0.4813 1.684,0.7223 2.944,0.7223 1.844,0 3.433,-0.4384 4.766,-1.3134 z m 8.941,1.1822 -0.22,2.7553 c -0.82,0.2911 -1.7,0.4375 -2.637,0.4375 -1.141,0 -2.042,-0.2473 -2.702,-0.7428 -0.658,-0.4964 -1.076,-1.3268 -1.252,-2.4938 -0.674,1.0206 -1.663,1.8161 -2.965,2.384 -1.303,0.5687 -2.672,0.8526 -4.107,0.8526 -2.168,0 -3.954,-0.5017 -5.36,-1.508 -1.406,-1.0062 -2.109,-2.4571 -2.109,-4.3545 0,-1.6616 0.733,-3.0991 2.197,-4.3089 1.464,-1.2107 3.587,-2.0491 6.37,-2.5152 l 5.843,-0.9625 v -1.2259 c 0,-1.458 -0.454,-2.6241 -1.362,-3.5 -0.908,-0.875 -2.168,-1.3107 -3.778,-1.3107 -1.465,0 -2.731,0.3482 -3.8,1.0491 -1.07,0.7 -1.896,1.7358 -2.482,3.1063 l -2.591,-1.8822 c 0.584,-1.6321 1.675,-2.9312 3.272,-3.8937 1.596,-0.9625 3.462,-1.4438 5.601,-1.4438 2.606,0 4.7,0.6277 6.282,1.8813 1.582,1.2545 2.372,3.1062 2.372,5.5562 v 10.7634 c 0,0.525 0.132,0.9188 0.396,1.1804 0.263,0.2634 0.687,0.3937 1.274,0.3937 0.585,0 1.17,-0.0714 1.758,-0.2178 z"
       fill="#0A2133"
       id="path9"
       style="fill:#b2d530;fill-opacity:1" /><path
       fill-rule="evenodd"
       clip-rule="evenodd"
       d="m 201.812,69.9277 c 1.244,-1.4598 1.867,-3.4125 1.867,-5.8625 v -0.525 c 0,-2.45 -0.623,-4.4054 -1.867,-5.8634 -1.245,-1.458 -2.922,-2.1866 -5.03,-2.1866 -2.138,0 -3.822,0.75 -5.052,2.2536 -1.23,1.5008 -1.846,3.5205 -1.846,6.058 0,2.5366 0.616,4.558 1.846,6.0598 1.23,1.5027 2.914,2.2527 5.052,2.2527 2.108,0 3.785,-0.7286 5.03,-2.1866 z m 5.382,-27.1259 v 31.9375 h -3.076 l -0.22,-3.8054 c -0.644,1.2831 -1.632,2.3107 -2.965,3.0831 -1.333,0.7723 -2.848,1.1598 -4.547,1.1598 -3.074,0 -5.513,-1.0134 -7.314,-3.0393 -1.801,-2.0286 -2.702,-4.8062 -2.702,-8.3357 0,-3.5286 0.901,-6.3063 2.702,-8.3339 1.801,-2.0268 4.24,-3.042 7.314,-3.042 1.61,0 3.054,0.3509 4.328,1.05 1.274,0.7009 2.263,1.6339 2.965,2.8009 v -13.475 z"
       fill="#0A2133"
       id="path10"
       style="fill:#b2d530;fill-opacity:1" /><g
       style="fill:none"
       id="g42"
       transform="translate(8.059335,0.2678375)"><path
         d="m 43.9954,26.1209 c -0.1243,0 -0.2397,-0.0355 -0.3463,-0.0976 L 22.447,13.6553 c -0.2131,-0.1243 -0.3463,-0.3551 -0.3463,-0.5948 0,-0.2398 0.1332,-0.4706 0.3374,-0.5949 L 43.6491,0.0976649 C 43.7557,0.0355145 43.88,0 43.9954,0 c 0.1243,0 0.2397,0.0355145 0.3463,0.0887863 0.2131,0.1243007 0.3462,0.3551447 0.3462,0.5948677 V 25.4195 c 0,0.2486 -0.1331,0.4795 -0.3462,0.5949 -0.1066,0.071 -0.222,0.1065 -0.3463,0.1065 z m -0.6836,-1.9 V 1.89115 L 24.1694,13.0605 Z"
         fill="#b2d530"
         id="path1-2" /><path
         d="m 43.9955,25.8723 c -0.0799,0 -0.151,-0.0177 -0.222,-0.0621 L 22.5713,13.4422 c -0.1331,-0.0799 -0.2219,-0.2219 -0.2219,-0.3817 0,-0.1598 0.0799,-0.3019 0.2219,-0.3818 L 43.7735,0.310755 c 0.1332,-0.079908 0.3019,-0.079908 0.4439,0 0.1421,0.079907 0.222,0.221965 0.222,0.381781 V 25.4284 c 0,0.1598 -0.0888,0.3019 -0.222,0.3818 -0.071,0.0355 -0.142,0.0621 -0.2219,0.0621 z M 23.6723,13.0605 43.5604,24.656 V 1.4561 Z"
         fill="#b2d530"
         id="path2-7" /><path
         d="m 65.1977,62.8962 c -0.1243,0 -0.2397,-0.0355 -0.3463,-0.0977 L 43.6492,50.4306 c -0.213,-0.1243 -0.3462,-0.3551 -0.3462,-0.5949 0,-0.2397 0.1332,-0.4705 0.3462,-0.5948 l 21.2022,-12.368 c 0.1066,-0.0621 0.222,-0.0976 0.3463,-0.0976 0.1243,0 0.2397,0.0355 0.3462,0.0888 0.2131,0.1243 0.3463,0.3551 0.3463,0.5948 v 24.7359 c 0,0.2486 -0.1332,0.4794 -0.3463,0.5949 -0.1065,0.071 -0.2219,0.1065 -0.3462,0.1065 z M 64.514,61.005 V 38.6664 L 45.3717,49.8357 Z"
         fill="#b2d530"
         id="path3-9" /><path
         d="m 65.1979,62.6476 c -0.08,0 -0.151,-0.0177 -0.222,-0.0621 L 43.7737,50.2175 c -0.1332,-0.0799 -0.2219,-0.2219 -0.2219,-0.3817 0,-0.1599 0.0799,-0.3019 0.2219,-0.3818 L 64.9759,37.086 c 0.1332,-0.0799 0.3019,-0.0799 0.4439,0 0.1332,0.08 0.222,0.222 0.222,0.3818 v 24.7359 c 0,0.1598 -0.0888,0.3019 -0.222,0.3818 -0.0621,0.0444 -0.142,0.0621 -0.2219,0.0621 z M 44.8747,49.8358 64.7628,61.4312 V 38.2403 Z"
         fill="#b2d530"
         id="path4-5" /><path
         d="m 65.1977,87.6321 c -0.1243,0 -0.2397,-0.0356 -0.3463,-0.0977 L 43.6492,75.1665 c -0.213,-0.1243 -0.3462,-0.3552 -0.3462,-0.5949 0,-0.2397 0.1332,-0.4706 0.3462,-0.5949 L 64.8514,61.6088 c 0.1066,-0.0621 0.222,-0.0977 0.3463,-0.0977 0.1243,0 0.2397,0.0356 0.3462,0.0888 0.2131,0.1243 0.3463,0.3552 0.3463,0.5949 v 24.7359 c 0,0.2486 -0.1332,0.4794 -0.3463,0.5948 -0.1065,0.0711 -0.2219,0.1066 -0.3462,0.1066 z M 64.514,85.7409 V 63.4023 L 45.3717,74.5716 Z"
         fill="#b2d530"
         id="path5-4" /><path
         d="m 65.1979,87.3835 c -0.08,0 -0.151,-0.0178 -0.222,-0.0622 L 43.7737,74.9534 c -0.1332,-0.0799 -0.2219,-0.222 -0.2219,-0.3818 0,-0.1598 0.0799,-0.3019 0.2219,-0.3818 L 64.9759,61.8219 c 0.1332,-0.0799 0.3019,-0.0799 0.4439,0 0.1332,0.0799 0.222,0.222 0.222,0.3818 v 24.7358 c 0,0.1599 -0.0888,0.3019 -0.222,0.3818 -0.0621,0.0444 -0.142,0.0622 -0.2219,0.0622 z M 44.8747,74.5716 64.7628,86.1671 v -23.191 z"
         fill="#b2d530"
         id="path6-3" /><path
         d="m 22.8378,62.8962 c -0.1154,0 -0.2219,-0.0266 -0.3285,-0.0799 L 1.28938,50.4306 C 1.07629,50.3063 0.943115,50.0755 0.943115,49.8357 c 0,-0.2397 0.133175,-0.4705 0.346265,-0.5948 L 22.5182,36.8552 22.5359,36.8463 c 0.0533,-0.0266 0.0977,-0.0355 0.1243,-0.0355 l 0.0356,-0.0089 c 0.0355,-0.0089 0.0887,-0.0355 0.1598,-0.0355 0.0532,0 0.0888,0.0089 0.1065,0.0178 0.071,0.0088 0.151,0.0266 0.2309,0.071 l 0.0266,0.0177 0.0089,0.0089 c 0.1953,0.1243 0.3107,0.3463 0.3107,0.5771 v 24.7359 c 0,0.1332 -0.0444,0.2664 -0.1154,0.3818 l 0.1065,0.1065 -0.3551,0.1243 c -0.1154,0.0622 -0.222,0.0888 -0.3374,0.0888 z m -0.6925,-1.8911 v -3.7823 l -3.2407,1.8911 z m -4.608,-2.6903 4.608,-2.6902 v -4.5814 l -8.5413,4.9809 z m -5.3006,-3.0897 9.9086,-5.78 V 44.8548 L 8.3035,52.9255 Z M 6.93619,52.1264 22.1453,43.2567 V 38.6664 L 3.00296,49.8357 Z"
         fill="#b2d530"
         id="path7-1" /><path
         d="M 23.0598,37.086 C 23.0066,37.0594 22.9533,37.0505 22.9,37.0417 c -0.0177,0 -0.0355,-0.0178 -0.0621,-0.0178 -0.0355,0 -0.0711,0.0178 -0.1066,0.0266 -0.0355,0.0089 -0.0799,0.0089 -0.1065,0.0267 L 1.41374,49.454 c -0.13318,0.0799 -0.22197,0.2219 -0.22197,0.3818 0,0.1598 0.07991,0.3018 0.22197,0.3817 l 21.20216,12.368 c 0.071,0.0355 0.1421,0.0621 0.222,0.0621 0.0799,0 0.1509,-0.0177 0.2219,-0.0621 0.1332,-0.0799 0.222,-0.222 0.222,-0.3818 v -0.7725 -5.1584 -1.0211 -5.1585 -1.021 -5.1585 -1.0299 -4.6435 -0.7725 c 0,-0.1598 -0.0888,-0.3018 -0.222,-0.3818 z m -0.6659,24.3452 -3.9865,-2.3262 3.9865,-2.3262 z m 0,-5.6645 -4.8566,2.8323 -4.4215,-2.5837 9.2781,-5.4071 z m 0,-6.1884 -10.1571,5.922 -4.42157,-2.5837 14.58757,-8.5057 v 5.1674 z M 6.93625,52.4194 2.51469,49.8358 12.441,44.0469 22.3939,38.2403 v 5.1585 z"
         fill="#b2d530"
         id="path8-2" /><path
         d="m 86.3998,75.2641 c -0.1154,0 -0.2219,-0.0266 -0.3285,-0.0799 L 64.8514,62.7985 c -0.2131,-0.1243 -0.3463,-0.3551 -0.3463,-0.5948 0,-0.2398 0.1332,-0.4706 0.3463,-0.5949 L 86.0802,49.2231 86.098,49.2142 c 0.0532,-0.0266 0.0976,-0.0355 0.1243,-0.0355 l 0.0355,-0.0089 c 0.0355,-0.0088 0.0888,-0.0355 0.1598,-0.0355 0.0444,0 0.0888,0.0089 0.1065,0.0178 0.0711,0.0089 0.151,0.0266 0.2309,0.071 l 0.0266,0.0178 0.0089,0.0088 c 0.1953,0.1243 0.3107,0.3463 0.3107,0.5772 v 24.7358 c 0,0.1332 -0.0444,0.2664 -0.1154,0.3818 l 0.1066,0.1065 -0.3552,0.1243 c -0.1065,0.0622 -0.2219,0.0888 -0.3374,0.0888 z M 85.7162,73.373 v -3.7823 l -3.2407,1.8911 z m -4.6169,-2.6902 4.608,-2.6903 v -4.5813 l -8.5412,4.9809 z m -5.3006,-3.0898 9.9086,-5.78 V 57.2228 L 71.8655,65.2934 Z M 70.4982,64.4944 85.7073,55.6246 V 51.0343 L 66.5738,62.2037 Z"
         fill="#b2d530"
         id="path9-3" /><path
         d="m 86.6217,49.454 c -0.0532,-0.0267 -0.1065,-0.0355 -0.1598,-0.0444 -0.0177,0 -0.0355,-0.0178 -0.0621,-0.0178 -0.0355,0 -0.0711,0.0178 -0.1066,0.0266 -0.0355,0.0089 -0.0799,0.0089 -0.1065,0.0267 L 64.9756,61.8219 c -0.1332,0.0799 -0.2219,0.222 -0.2219,0.3818 0,0.1598 0.0799,0.3018 0.2219,0.3818 l 21.2022,12.3679 c 0.071,0.0355 0.1421,0.0621 0.222,0.0621 0.0799,0 0.1509,-0.0177 0.2219,-0.0621 0.1332,-0.0799 0.222,-0.222 0.222,-0.3818 v -0.7724 -5.1585 -1.0211 -5.1584 -1.0211 -5.1585 -1.021 -4.6524 -0.7725 c 0,-0.1598 -0.0799,-0.3018 -0.222,-0.3817 z m -0.657,24.354 -3.9865,-2.3262 3.9865,-2.3262 z m 0,-5.6734 -4.8566,2.8323 -4.4216,-2.5837 9.2871,-5.416 v 5.1674 z m 0,-6.1795 -10.1571,5.922 -4.4216,-2.5837 14.5876,-8.5057 v 5.1674 z m -15.4666,2.8323 -4.4215,-2.5837 9.9263,-5.7889 9.9618,-5.8066 v 5.1585 z"
         fill="#b2d530"
         id="path10-3" /><path
         d="m 43.9954,75.2641 c -0.1154,0 -0.222,-0.0266 -0.3285,-0.0799 L 43.6403,75.1754 43.5781,75.1487 V 75.1398 L 22.447,62.7986 c -0.2131,-0.1243 -0.3463,-0.3552 -0.3463,-0.5949 0,-0.2397 0.1332,-0.4706 0.3463,-0.5949 l 21.1755,-12.3502 0.0089,-0.0088 0.0266,-0.0089 0.0178,-0.0089 0.0177,-0.0089 c 0.0533,-0.0266 0.0977,-0.0355 0.1243,-0.0355 l 0.0356,-0.0089 c 0.0355,-0.0088 0.0887,-0.0355 0.1598,-0.0355 0.0444,0 0.0888,0.0089 0.1065,0.0178 0.071,0.0089 0.1509,0.0266 0.2309,0.071 l 0.0355,0.0266 v 0.0089 c 0.1864,0.1154 0.3018,0.3374 0.3018,0.5683 v 24.7358 c 0,0.1509 -0.0532,0.3019 -0.142,0.4173 l 0.0355,0.0533 -0.2397,0.1243 c -0.1066,0.0621 -0.222,0.0976 -0.3463,0.0976 z M 43.3118,73.373 v -3.7823 l -3.2407,1.8912 z m -4.6169,-2.6902 4.608,-2.6902 v -4.5814 l -8.5413,4.9809 z m -5.3006,-3.0898 9.9086,-5.78 V 57.2228 L 29.4611,65.2934 Z M 28.0938,64.4944 43.3029,55.6246 V 51.0344 L 24.1694,62.2037 Z"
         fill="#b2d530"
         id="path11" /><path
         d="m 44.2174,49.454 c -0.0532,-0.0267 -0.1065,-0.0355 -0.1598,-0.0444 -0.0177,0 -0.0355,-0.0178 -0.0621,-0.0178 -0.0356,0 -0.0711,0.0178 -0.1066,0.0266 -0.0355,0.0089 -0.0799,0.0089 -0.1065,0.0267 L 22.5713,61.8219 c -0.1331,0.0799 -0.2219,0.222 -0.2219,0.3818 0,0.1598 0.0799,0.3018 0.2219,0.3818 l 21.2022,12.3679 c 0.071,0.0355 0.1421,0.0621 0.222,0.0621 0.0799,0 0.1509,-0.0177 0.2219,-0.0621 0.1332,-0.0799 0.222,-0.222 0.222,-0.3818 v -0.7724 -5.1585 -1.0211 -5.1584 -1.0211 -5.1585 -1.021 -4.6524 -0.7725 c 0,-0.1598 -0.0799,-0.3018 -0.222,-0.3817 z m -0.657,24.3452 -3.9865,-2.3262 3.9865,-2.3262 z m 0,-5.6646 -4.8566,2.8323 -4.4216,-2.5837 9.2871,-5.416 v 5.1674 z m 0,-6.1795 -10.166,5.922 -4.4216,-2.5837 14.5876,-8.5057 z m -15.4666,2.8323 -4.4215,-2.5837 9.9263,-5.7889 9.9618,-5.8066 v 5.1585 z"
         fill="#b2d530"
         id="path12" /><path
         d="m 43.9954,75.2641 c -0.071,0 -0.1243,-0.0177 -0.1598,-0.0355 L 43.8178,75.2198 C 43.7734,75.2109 43.7202,75.202 43.6669,75.1754 H 43.658 L 43.6314,75.1665 43.6136,75.1576 43.6047,75.1487 22.447,62.7986 c -0.2131,-0.1243 -0.3463,-0.3552 -0.3463,-0.5949 0,-0.2486 0.1332,-0.4706 0.3463,-0.5949 l 21.1755,-12.3502 0.0089,-0.0088 0.0444,-0.0267 c 0.0976,-0.0532 0.2131,-0.0799 0.3285,-0.0799 0.1243,0 0.2397,0.0355 0.3463,0.0888 l 0.2397,0.1243 -0.0355,0.0533 c 0.0887,0.1154 0.142,0.2663 0.142,0.4173 v 24.7358 c 0,0.2398 -0.1243,0.4617 -0.3285,0.586 h -0.0089 c -0.0976,0.0533 -0.1864,0.0711 -0.2486,0.0799 -0.0266,0.0178 -0.0621,0.0355 -0.1154,0.0355 z M 43.3118,73.373 V 68.7827 L 28.1027,59.913 24.1694,62.2037 Z m 0,-6.1884 v -4.5903 l -9.9175,-5.7799 -3.9332,2.2906 z m 0,-6.1795 v -4.5814 l -4.6081,-2.6902 -3.9332,2.2907 z m 0,-6.1884 v -3.7823 l -3.2407,1.8911 z"
         fill="#b2d530"
         id="path13" /><path
         d="m 44.4394,74.5716 v -0.7724 -4.6436 -1.021 -5.1585 -1.021 -5.1585 -1.0211 -5.1673 -0.7725 c 0,-0.1598 -0.0799,-0.3018 -0.222,-0.3817 -0.071,-0.0355 -0.142,-0.0622 -0.2219,-0.0622 -0.0799,0 -0.151,0.0178 -0.222,0.0622 L 22.5713,61.8219 c -0.1331,0.0799 -0.2219,0.222 -0.2219,0.3818 0,0.1598 0.0799,0.3018 0.2219,0.3818 l 21.2022,12.3679 c 0.0355,0.0177 0.071,0.0177 0.1065,0.0266 0.0356,0.0089 0.0711,0.0267 0.1066,0.0267 0.0177,0 0.0355,-0.0089 0.0621,-0.0178 0.0533,-0.0089 0.1155,-0.0178 0.1598,-0.0444 0.151,-0.071 0.2309,-0.2131 0.2309,-0.3729 z m -0.879,-19.3199 -3.9865,-2.3262 3.9865,-2.3173 z m 0,6.1795 -9.287,-5.4159 4.4215,-2.5837 4.8566,2.8323 v 5.1673 z m 0,6.1884 -14.5876,-8.5057 4.4216,-2.5837 10.1571,5.9221 v 5.1673 z m 0,1.0211 v 5.1585 L 33.6075,67.9925 23.6812,62.2037 28.1027,59.62 Z"
         fill="#b2d530"
         id="path14" /><path
         d="m 65.1977,87.6321 c -0.1155,0 -0.222,-0.0267 -0.3285,-0.0799 l -0.3019,-0.0977 0.071,-0.0977 C 64.5495,87.2414 64.5051,87.0993 64.5051,86.9484 V 62.2037 c 0,-0.2309 0.1154,-0.4528 0.3108,-0.5771 h 0.0089 l 0.0266,-0.0178 c 0.0888,-0.0444 0.1687,-0.0621 0.2308,-0.071 0.0267,-0.0089 0.0622,-0.0178 0.1066,-0.0178 0.071,0 0.1243,0.0178 0.1598,0.0355 l 0.0178,0.0089 c 0.0443,0.0089 0.0976,0.0178 0.1509,0.0444 h 0.0089 l 0.0177,0.0089 0.0267,0.0089 21.1844,12.3501 c 0.2131,0.1243 0.3462,0.3552 0.3462,0.5949 0,0.2486 -0.1331,0.4706 -0.3462,0.5949 l -21.1578,12.3413 -0.0089,0.0088 -0.0532,0.0267 -0.0089,0.0089 c -0.0977,0.0532 -0.2131,0.0799 -0.3285,0.0799 z m 0.6925,-1.8912 3.2407,-1.8911 -3.2407,-1.8912 z m 4.608,-2.6902 3.9332,-2.2907 -8.5412,-4.9809 v 4.5814 z m 5.3005,-3.0898 3.9333,-2.2907 -13.8418,-8.0795 v 4.5902 z m 5.3006,-3.0986 3.9332,-2.2907 -19.1423,-11.1693 v 4.5902 z"
         fill="#b2d530"
         id="path15" /><path
         d="m 64.7627,62.2037 v 0.7724 4.6436 1.021 5.1585 1.021 5.1585 1.021 5.1585 0.7725 c 0,0.1598 0.0799,0.3018 0.222,0.3817 0.071,0.0356 0.142,0.0622 0.2219,0.0622 0.0799,0 0.151,-0.0178 0.222,-0.0622 L 86.6308,74.9445 c 0.1331,-0.0799 0.2219,-0.2219 0.2219,-0.3818 0,-0.1598 -0.0799,-0.3018 -0.2219,-0.3817 L 65.4197,61.8219 c -0.0355,-0.0178 -0.071,-0.0178 -0.1065,-0.0266 -0.0355,-0.0089 -0.0711,-0.0267 -0.1066,-0.0267 -0.0177,0 -0.0355,0.0089 -0.0621,0.0178 -0.0533,0.0089 -0.1154,0.0177 -0.1598,0.0444 -0.1421,0.071 -0.222,0.2131 -0.222,0.3729 z m 0.879,19.3199 3.9865,2.3262 -3.9865,2.3262 z m 0,-6.1795 9.287,5.4159 -4.4215,2.5837 -4.8566,-2.8323 v -5.1673 z m 0,-6.1884 14.5876,8.5057 -4.4216,2.5837 -10.1571,-5.9221 v -5.1673 z m 0,-1.0211 v -5.1585 l 9.9529,5.8066 9.9263,5.7889 -4.4215,2.5837 z"
         fill="#b2d530"
         id="path16" /><path
         d="m 43.9955,100 c -0.1154,0 -0.222,-0.0266 -0.3285,-0.0799 l -0.3019,-0.0977 0.0711,-0.0977 C 43.3474,99.6093 43.303,99.4673 43.303,99.3163 V 74.5716 c 0,-0.2309 0.1154,-0.4528 0.3107,-0.5771 l 0.0089,-0.0089 0.0266,-0.0178 c 0.0888,-0.0443 0.1687,-0.0621 0.2309,-0.071 0.0266,-0.0089 0.0621,-0.0177 0.1065,-0.0177 0.0711,0 0.1243,0.0177 0.1598,0.0355 l 0.0178,0.0089 c 0.0355,0.0088 0.0888,0.0177 0.1332,0.0355 0.0089,0.0088 0.0266,0.0088 0.0355,0.0177 l 0.0266,0.0178 0.0089,0.0089 21.1667,12.3501 c 0.2131,0.1243 0.3462,0.3552 0.3462,0.5949 0,0.2486 -0.1331,0.4706 -0.3462,0.5949 l -21.1578,12.3413 -0.0089,0.0088 -0.0533,0.0267 -0.0444,0.0266 H 44.2619 C 44.1908,99.9822 44.0932,100 43.9955,100 Z m 0.6925,-1.8912 3.2407,-1.8911 -3.2407,-1.8912 z m 4.6081,-2.6902 3.9332,-2.2907 -8.5413,-4.9809 v 4.5814 z m 5.3005,-3.0898 3.9332,-2.2906 -13.8418,-8.0707 v 4.5902 z M 59.8971,89.2391 63.8304,86.9484 44.688,75.7791 v 4.5902 z"
         fill="#b2d530"
         id="path17" /><path
         d="m 43.5518,74.5716 v 0.7724 4.6436 1.021 5.1585 1.021 5.1585 1.0211 5.1584 0.7725 c 0,0.1598 0.0799,0.3019 0.2219,0.3818 0.0711,0.0355 0.1421,0.0621 0.222,0.0621 0.0799,0 0.1509,-0.0177 0.222,-0.0621 l 21.2021,-12.368 c 0.1332,-0.0799 0.222,-0.2219 0.222,-0.3817 0,-0.1599 -0.0799,-0.3019 -0.222,-0.3818 L 44.2177,74.1898 c -0.0356,-0.0177 -0.0711,-0.0177 -0.1066,-0.0266 -0.0355,-0.0089 -0.071,-0.0266 -0.1065,-0.0266 -0.0178,0 -0.0355,0.0088 -0.0622,0.0177 -0.0533,0.0089 -0.1154,0.0178 -0.1598,0.0444 -0.1421,0.071 -0.2308,0.222 -0.2308,0.3729 z m 0.8878,19.3288 3.9865,2.3262 -3.9865,2.3262 z m 0,-6.1884 9.2871,5.4159 -4.4216,2.5837 -4.8566,-2.8323 V 87.712 Z m 0,-6.1884 14.5876,8.5057 -4.4215,2.5837 -10.1572,-5.9221 v -5.1673 z m 0,-1.0211 V 75.344 l 9.953,5.8067 9.9263,5.7888 -4.4216,2.5837 z"
         fill="#b2d530"
         id="path18" /><path
         d="m 43.9957,50.5283 c -0.0444,0 -0.0888,-0.0089 -0.1066,-0.0178 -0.071,-0.0089 -0.1509,-0.0266 -0.2308,-0.071 L 43.6316,50.4217 43.6228,50.4128 C 43.4274,50.2885 43.312,50.0666 43.312,49.8357 V 25.0999 c 0,-0.1332 0.0444,-0.2664 0.1154,-0.3818 l -0.1065,-0.1066 0.3551,-0.1243 c 0.0977,-0.0532 0.2131,-0.0799 0.3285,-0.0799 0.1243,0 0.2398,0.0356 0.3463,0.0888 l 0.0266,0.0178 0.0089,0.0089 21.1667,12.3413 c 0.2131,0.1243 0.3462,0.3551 0.3462,0.5948 0,0.2397 -0.1331,0.4706 -0.3462,0.5949 l -21.1578,12.3413 -0.0089,0.0089 -0.0532,0.0266 -0.0444,0.0266 h -0.0178 c -0.0355,0.0089 -0.0621,0.0178 -0.0888,0.0178 l -0.0355,0.0089 c -0.0266,0.0266 -0.0799,0.0444 -0.1509,0.0444 z m 0.6925,-1.8912 19.1423,-11.1693 -3.9332,-2.2907 -15.2091,8.8698 z m 0,-6.1884 13.8418,-8.0707 -3.9333,-2.2906 -9.9085,5.7799 z m 0,-6.1795 8.5412,-4.9809 -3.9332,-2.2907 -4.608,2.6902 z m 0,-6.1884 3.2407,-1.8912 -3.2407,-1.8911 z"
         fill="#b2d530"
         id="path19" /><path
         d="m 43.7737,50.2175 c 0,0 0.0089,0 0,0 0.0533,0.0267 0.1066,0.0355 0.1598,0.0444 0.0178,0 0.0356,0.0178 0.0622,0.0178 0.0355,0 0.071,-0.0178 0.1065,-0.0267 0.0355,-0.0088 0.0799,-0.0088 0.1066,-0.0266 L 65.4109,37.8585 c 0.1332,-0.0799 0.222,-0.222 0.222,-0.3818 0,-0.1598 -0.0799,-0.3019 -0.222,-0.3818 L 44.2177,24.7181 c -0.0711,-0.0355 -0.1421,-0.0622 -0.222,-0.0622 -0.0799,0 -0.1509,0.0178 -0.222,0.0622 -0.1332,0.0799 -0.2219,0.222 -0.2219,0.3818 v 0.7724 5.1585 1.021 5.1585 1.0211 5.1585 1.021 4.6435 0.7725 c 0.0088,0.1687 0.0887,0.3107 0.2219,0.3906 z m 0.6659,-24.3452 3.9865,2.3262 -3.9865,2.3262 z m 0,5.6646 4.8566,-2.8323 4.4216,2.5837 -9.2871,5.4159 v -5.1673 z m 0,6.1884 10.1572,-5.9221 4.4215,2.5837 -14.5787,8.4969 z m 15.4577,-2.8412 4.4216,2.5837 -9.9263,5.7889 -9.953,5.8066 v -5.1585 z"
         fill="#b2d530"
         id="path20" /><path
         d="m 65.1977,87.6321 c -0.0444,0 -0.0888,-0.0089 -0.1066,-0.0178 -0.071,-0.0089 -0.1509,-0.0266 -0.2308,-0.071 L 64.8159,87.5166 64.807,87.5078 C 64.6206,87.3835 64.5051,87.1704 64.5051,86.9395 V 62.2037 c 0,-0.1421 0.0444,-0.2664 0.1154,-0.3818 L 64.585,61.7864 c 0,0 0.2309,-0.151 0.2309,-0.1598 h 0.0089 l 0.0266,-0.0089 0.0444,-0.0266 h 0.0177 c 0.0888,-0.0444 0.1954,-0.0622 0.293,-0.0622 0.0977,0 0.2042,0.0266 0.293,0.0622 h 0.0178 l 0.0444,0.0266 0.0177,0.0089 0.0089,0.0088 21.1667,12.3413 c 0.2131,0.1243 0.3462,0.3552 0.3462,0.5949 0,0.2397 -0.1331,0.4706 -0.3462,0.5949 l -21.1667,12.3501 -0.0266,0.0267 -0.0533,0.0089 -0.0177,0.0088 h -0.0178 c -0.0355,0.0178 -0.071,0.0178 -0.0977,0.0267 l -0.0355,0.0089 c -0.0177,0.0177 -0.071,0.0355 -0.142,0.0355 z m 0.6925,-1.8912 19.1423,-11.1693 -3.9332,-2.2907 -15.2091,8.8698 z m 0,-6.1884 13.8418,-8.0707 -3.9333,-2.2906 -9.9085,5.7799 z m 0,-6.1795 8.5412,-4.9809 -3.9332,-2.2907 -4.608,2.6902 z m 0,-6.1884 3.2407,-1.8912 -3.2407,-1.8911 z"
         fill="#b2d530"
         id="path21" /><path
         d="m 64.9756,87.3213 c 0.0089,0 0.0089,0 0,0 0.0533,0.0266 0.1066,0.0355 0.1598,0.0444 0.0178,0 0.0356,0.0178 0.0622,0.0178 0.0355,0 0.071,-0.0178 0.1065,-0.0267 0.0356,-0.0089 0.0799,-0.0089 0.1066,-0.0266 L 86.6129,74.9623 c 0.1331,-0.0799 0.2219,-0.222 0.2219,-0.3818 0,-0.1598 -0.0799,-0.3019 -0.2219,-0.3818 L 65.4196,61.8219 c -0.0711,-0.0355 -0.1421,-0.0622 -0.222,-0.0622 -0.0799,0 -0.1509,0.0178 -0.222,0.0622 -0.1332,0.0799 -0.2219,0.222 -0.2219,0.3818 v 0.7724 5.1585 1.021 5.1585 1.0211 5.1584 1.0211 4.6435 0.7725 c 0.0088,0.1686 0.0887,0.3107 0.2219,0.3906 z m 0.6659,-24.3452 3.9865,2.3262 -3.9865,2.3262 z m 0,5.6646 4.8566,-2.8323 4.4216,2.5837 -9.287,5.4159 v -5.1673 z m 0,6.1884 10.1572,-5.9221 4.4215,2.5837 -14.5875,8.5057 v -5.1673 z m 15.4577,-2.8412 4.4216,2.5837 -9.9263,5.7889 -9.953,5.8066 v -5.1585 z"
         fill="#b2d530"
         id="path22" /><path
         d="m 43.9955,100 c -0.0444,0 -0.0888,-0.0089 -0.1065,-0.0178 -0.0711,-0.0088 -0.151,-0.0266 -0.2309,-0.071 L 43.6137,99.8846 43.6049,99.8757 C 43.4184,99.7514 43.303,99.5383 43.303,99.3075 V 74.5716 c 0,-0.1421 0.0444,-0.2664 0.1154,-0.3818 l -0.0355,-0.0355 c 0,0 0.222,-0.1509 0.2308,-0.1598 l 0.0089,-0.0089 0.0178,-0.0089 0.0444,-0.0266 h 0.0177 c 0.0888,-0.0444 0.1953,-0.0621 0.293,-0.0621 0.0977,0 0.2042,0.0266 0.293,0.0621 h 0.0444 l 0.0355,0.0355 21.1755,12.3502 c 0.2131,0.1243 0.3463,0.3551 0.3463,0.5949 0,0.2397 -0.1332,0.4705 -0.3463,0.5948 l -21.1666,12.3413 -0.0266,0.0267 h -0.0178 l -0.0178,0.0177 -0.0444,0.0089 c -0.0355,0.0178 -0.071,0.0178 -0.0976,0.0266 l -0.0355,0.0089 C 44.1198,99.9822 44.0665,100 43.9955,100 Z M 44.688,98.1089 63.8304,86.9395 59.8971,84.6488 44.688,93.5186 Z m 0,-6.1796 13.8418,-8.0706 -3.9332,-2.2907 -9.9086,5.78 z m 0,-6.1884 8.5413,-4.9809 -3.9332,-2.2907 -4.6081,2.6903 z m 0,-6.1795 3.2407,-1.8911 -3.2407,-1.8912 z"
         fill="#b2d530"
         id="path23" /><path
         d="m 43.7737,99.6892 c 0,0 0,0.0089 0,0 0.0533,0.0267 0.1066,0.0355 0.1598,0.0444 0.0178,0 0.0356,0.0178 0.0622,0.0178 0.0355,0 0.071,-0.0178 0.1065,-0.0267 0.0355,-0.0088 0.0799,-0.0088 0.1066,-0.0266 L 65.4109,87.3302 c 0.1332,-0.0799 0.222,-0.222 0.222,-0.3818 0,-0.1598 -0.0799,-0.3019 -0.222,-0.3818 L 44.2177,74.1898 c -0.0711,-0.0355 -0.1421,-0.0621 -0.222,-0.0621 -0.0799,0 -0.1509,0.0177 -0.222,0.0621 -0.1332,0.0799 -0.2219,0.222 -0.2219,0.3818 v 0.7724 5.1585 1.0211 5.1584 1.0211 5.1585 1.021 4.6435 0.7725 c 0,0.1687 0.0887,0.3196 0.2219,0.3906 z m 0.6659,-24.3452 3.9865,2.3262 -3.9865,2.3262 z m 0,5.6646 4.8566,-2.8323 4.4216,2.5837 -9.2871,5.416 v -5.1674 z m 0,6.1884 10.1572,-5.922 4.4215,2.5836 -14.5876,8.5058 V 87.197 Z m 15.4577,-2.8323 4.4216,2.5837 -9.9263,5.7889 -9.953,5.8066 v -5.1585 z"
         fill="#b2d530"
         id="path24" /><path
         d="m 22.7933,87.6321 c -0.0444,0 -0.0888,-0.0089 -0.1066,-0.0178 -0.071,-0.0089 -0.1509,-0.0266 -0.2308,-0.071 L 22.4293,87.5255 22.4204,87.5166 C 22.225,87.3923 22.1096,87.1704 22.1096,86.9395 V 62.2037 c 0,-0.1421 0.0444,-0.2664 0.1154,-0.3818 l -0.0355,-0.0355 c 0,0 0.2309,-0.151 0.2309,-0.1598 l 0.0089,-0.0089 0.0266,-0.0178 0.0444,-0.0266 h 0.0177 c 0.0888,-0.0444 0.1954,-0.0622 0.293,-0.0622 0.0977,0 0.2042,0.0267 0.293,0.0622 h 0.0355 l 0.0356,0.0355 0.0177,0.0089 21.1578,12.3413 c 0.2131,0.1243 0.3463,0.3551 0.3463,0.5948 0,0.2398 -0.1332,0.4706 -0.3463,0.5949 l -21.1667,12.3679 -0.0088,0.0089 -0.0444,0.0178 -0.0178,0.0089 H 23.104 c -0.0444,0.0177 -0.0888,0.0266 -0.1154,0.0355 h -0.0178 c -0.0532,0.0266 -0.1065,0.0444 -0.1775,0.0444 z m 0.6925,-1.8912 19.1423,-11.1693 -3.9332,-2.2907 -15.2091,8.8698 z m 0,-6.1884 13.8418,-8.0707 -3.9332,-2.2906 -9.9086,5.7799 z m 0,-6.1795 8.5413,-4.9809 -3.9333,-2.2907 -4.608,2.6902 z m 0,-6.1884 3.2407,-1.8912 -3.2407,-1.8911 z"
         fill="#b2d530"
         id="path25" /><path
         d="m 22.5713,87.3213 c 0.0533,0.0266 0.1066,0.0355 0.1598,0.0444 0.0178,0 0.0356,0.0178 0.0622,0.0178 0.0355,0 0.071,-0.0178 0.1065,-0.0267 0.0356,-0.0089 0.0799,-0.0089 0.1066,-0.0266 L 44.2085,74.9623 c 0.1332,-0.0799 0.222,-0.222 0.222,-0.3818 0,-0.1598 -0.0799,-0.3019 -0.222,-0.3818 L 23.0153,61.8219 c -0.0711,-0.0355 -0.1421,-0.0622 -0.222,-0.0622 -0.0799,0 -0.1509,0.0178 -0.222,0.0622 -0.1331,0.0799 -0.2219,0.222 -0.2219,0.3818 v 0.7724 5.1585 1.021 5.1585 1.0211 5.1584 1.0211 4.6435 0.7725 c 0.0088,0.1686 0.0888,0.3107 0.2219,0.3906 z m 0.6659,-24.3452 3.9865,2.3262 -3.9865,2.3262 z m 0,5.6646 4.8566,-2.8323 4.4216,2.5837 -9.2871,5.4159 v -5.1673 z m 0,6.1884 10.1572,-5.9309 4.4215,2.5836 -14.5876,8.5058 v -5.1585 z m 15.4577,-2.8412 4.4216,2.5837 -9.9263,5.7889 -9.953,5.8066 v -5.1585 z"
         fill="#b2d530"
         id="path26" /><path
         d="m 22.7934,87.6321 c -0.1154,0 -0.2397,-0.0355 -0.3463,-0.0888 L 22.385,87.5078 V 87.4989 L 1.24495,75.1665 C 1.14728,75.1132 1.08513,75.0333 1.04074,74.9623 0.943075,74.8468 0.898682,74.7137 0.898682,74.5716 c 0,-0.1421 0.044393,-0.2664 0.133178,-0.3995 C 1.07625,74.101 1.1384,74.03 1.23607,73.9679 L 22.385,61.6443 v -0.0089 l 0.071,-0.0355 0.0355,-0.0177 h 0.0089 c 0.0355,-0.0089 0.071,-0.0178 0.0888,-0.0178 l 0.0355,-0.0089 c 0.0355,-0.0088 0.0977,-0.0355 0.1687,-0.0355 0.0621,0 0.1065,0.0178 0.1332,0.0267 h 0.0177 c 0.0444,0.0088 0.1066,0.0177 0.1776,0.0532 l 0.0444,0.0267 0.364,0.2131 v 25.4727 l -0.4084,0.2398 c -0.1066,0.0532 -0.222,0.0799 -0.3285,0.0799 z m -0.6926,-1.8912 v -3.7823 l -3.2407,1.8912 z m -5.2472,-3.0631 v -3.8445 l -3.294,1.9267 z m 1.385,-0.0622 3.1875,-1.8556 -3.1875,-1.8556 z m -6.6678,-3.0187 v -3.8622 l -3.31173,1.9267 z m 10.53,-0.0444 v -3.7823 l -3.2407,1.8912 z M 12.947,79.517 16.1167,77.6702 12.947,75.8235 Z M 6.27913,76.5071 v -3.871 L 2.95852,74.5716 Z M 16.8536,76.4983 v -3.8445 l -3.294,1.9267 z m 1.385,-0.0711 3.1875,-1.8556 -3.1875,-1.8556 z M 7.65532,76.4184 10.8161,74.5716 7.65532,72.7249 Z M 11.5708,73.4085 V 69.5463 L 8.25907,71.473 Z m 10.53,-0.0355 v -3.7823 l -3.2407,1.8911 z M 12.947,73.3286 16.1167,71.4818 12.947,69.6351 Z m 3.9066,-3.0187 v -3.8445 l -3.294,1.9267 z m 1.385,-0.0622 3.1875,-1.8556 -3.1875,-1.8557 z m 3.8622,-3.0631 v -3.7823 l -3.2407,1.8911 z"
         fill="#b2d530"
         id="path27" /><path
         d="m 23.0154,61.8219 c -0.0444,-0.0266 -0.0977,-0.0266 -0.1421,-0.0355 -0.0266,-0.0089 -0.0532,-0.0178 -0.0799,-0.0178 -0.0444,0 -0.0799,0.0178 -0.1154,0.0355 -0.0355,0.0089 -0.071,0.0089 -0.0976,0.0267 l -0.1776,0.0976 -4.4038,2.5749 -0.8879,0.5149 -4.4038,2.5659 -0.8878,0.515 -4.40385,2.5659 -0.88786,0.515 -4.4038,2.5659 -0.75469,0.4439 c -0.05327,0.0355 -0.09766,0.0799 -0.13317,0.1332 -0.05328,0.071 -0.08879,0.1598 -0.08879,0.2486 0,0.0888 0.03551,0.1776 0.08879,0.2486 0.03551,0.0533 0.07102,0.0977 0.13317,0.1332 l 0.75469,0.4439 4.4038,2.5659 0.88786,0.515 4.40385,2.5659 0.8878,0.515 4.4038,2.5659 0.8879,0.515 4.4038,2.5659 0.1776,0.0977 c 0.071,0.0355 0.142,0.0621 0.2219,0.0621 0.0799,0 0.151,-0.0177 0.222,-0.0621 l 0.2663,-0.151 v -1.021 -4.5903 -0.5682 -0.4439 -0.5683 -4.5902 -0.5682 -0.4529 -0.5682 -4.5902 -0.5683 -0.4528 -0.5682 -4.5903 -1.0388 z m -4.6524,22.0279 3.9865,-2.3262 v 4.6435 z M 6.52779,72.201 v 4.7412 L 2.47025,74.5716 Z m 0.87898,0.0977 3.90663,2.2729 -3.90663,2.2818 z m 10.58333,6.1706 3.9244,2.2907 -3.9244,2.2907 z m 0,-12.3679 3.9244,2.2907 -3.9244,2.2907 z m 4.3594,7.7067 -3.9865,-2.3262 3.9865,-2.3262 z m 0,6.1795 -3.9865,-2.3262 3.9865,-2.3262 z m -4.3594,-7.7067 3.9244,2.2907 -3.9244,2.2907 z m -0.8879,4.6436 -4.0397,-2.3529 4.0397,-2.3528 z m 5.2473,-9.3048 -3.9865,-2.3263 3.9865,-2.3262 z m -9.6511,6.144 V 69.2 l 3.9155,2.2819 z m 0,1.6159 3.9155,2.2818 -3.9155,2.2818 z m 4.4038,-9.3492 v 4.7145 l -4.0397,-2.3528 z m -5.2827,3.0897 v 4.7235 L 7.7708,71.4819 Z m -4.0487,8.5413 4.0487,-2.3617 v 4.7234 z m 9.3314,0.7369 v 4.7146 L 13.0625,80.76 Z"
         fill="#b2d530"
         id="path28" /><path
         d="m 43.9779,100 c -0.1155,0 -0.222,-0.0266 -0.3197,-0.0799 L 43.5961,99.8846 22.4294,87.5433 C 22.3318,87.49 22.2696,87.4101 22.2252,87.3391 22.1364,87.2148 22.092,87.0816 22.092,86.9395 c 0,-0.1332 0.0444,-0.2663 0.1332,-0.3995 0.0444,-0.071 0.1066,-0.1421 0.2042,-0.2042 L 43.676,73.9412 h 0.0177 c 0.0356,-0.0089 0.0711,-0.0177 0.0888,-0.0177 l 0.0355,-0.0089 c 0.0356,-0.0178 0.0977,-0.0355 0.1687,-0.0355 0.0622,0 0.1066,0.0177 0.1332,0.0266 h 0.0178 c 0.0355,0.0089 0.0888,0.0178 0.142,0.0355 h 0.0178 l 0.0444,0.0266 0.0355,0.0178 0.3463,0.2042 v 25.4728 l -0.4084,0.2397 H 44.3064 C 44.1909,99.9733 44.0844,100 43.9779,100 Z m -0.6926,-1.8912 v -3.7823 l -3.2407,1.8912 z m -5.2472,-3.0631 v -3.8444 l -3.294,1.9266 z m 1.385,-0.0621 3.1875,-1.8557 -3.1875,-1.8556 z m -6.6678,-3.0188 v -3.8622 l -3.3118,1.9267 z m 10.53,-0.0444 v -3.7823 l -3.2407,1.8912 z m -9.1538,-0.0355 3.1696,-1.8467 -3.1696,-1.8468 z M 27.4636,88.8751 V 85.004 l -3.3206,1.9355 z m 10.5745,-0.0089 v -3.8445 l -3.294,1.9267 z m 1.385,-0.0622 3.1875,-1.8556 -3.1875,-1.8556 z m -10.5833,-0.0177 3.1608,-1.8468 -3.1608,-1.8467 z m 3.9155,-3.0099 v -3.8622 l -3.3118,1.9267 z m 10.53,-0.0355 v -3.7823 l -3.2407,1.8912 z m -9.1538,-0.0355 3.1696,-1.8556 -3.1696,-1.8468 z m 3.9066,-3.0276 v -3.8445 l -3.294,1.9267 z m 1.385,-0.0622 3.1875,-1.8556 -3.1875,-1.8556 z m 3.8622,-3.0631 v -3.7823 l -3.2407,1.8912 z"
         fill="#b2d530"
         id="path29" /><path
         d="m 44.1996,74.1898 c -0.0444,-0.0266 -0.0977,-0.0266 -0.142,-0.0355 -0.0267,-0.0089 -0.0533,-0.0177 -0.08,-0.0177 -0.0444,0 -0.0799,0.0177 -0.1154,0.0355 -0.0355,0.0088 -0.071,0.0088 -0.0976,0.0266 l -0.1776,0.0977 -4.4038,2.5659 -0.8879,0.515 -4.4038,2.5659 -0.8878,0.5149 -4.4038,2.566 -0.8879,0.5149 -4.4038,2.5837 -0.7547,0.4439 c -0.0533,0.0355 -0.0977,0.0799 -0.1332,0.1332 -0.0532,0.071 -0.0888,0.1598 -0.0888,0.2486 0,0.0977 0.0356,0.1776 0.0888,0.2486 0.0355,0.0533 0.0711,0.0977 0.1332,0.1332 l 0.7547,0.4439 4.4038,2.5659 0.8879,0.515 4.4038,2.5659 0.8878,0.515 4.4038,2.5659 0.8879,0.515 4.4038,2.5659 0.1776,0.0977 c 0.071,0.0355 0.142,0.0621 0.2219,0.0621 0.0799,0 0.151,-0.0177 0.222,-0.0621 l 0.2663,-0.151 v -1.021 -4.5903 -0.5682 -0.4528 -0.5682 -4.5903 -0.5682 -0.4528 -0.5683 -4.5902 -0.5682 -0.4617 -0.5683 -4.5902 -1.0211 z m -4.6524,22.0279 3.9865,-2.3262 V 98.535 Z M 27.712,84.5778 v 4.7412 l -4.0575,-2.3706 z m 0.879,0.0888 3.9066,2.2729 -3.9066,2.2818 z m 10.5833,6.1707 3.9244,2.2906 -3.9244,2.2907 z m 0,-12.368 3.9244,2.2907 -3.9244,2.2907 z m 4.3594,7.7067 -3.9865,-2.3262 3.9865,-2.3262 z m 0,6.1795 -3.9865,-2.3262 3.9865,-2.3262 z m -4.3594,-7.7067 3.9244,2.2907 -3.9244,2.2907 z m -0.8879,4.6525 -4.0397,-2.3529 4.0397,-2.3528 z m 5.2473,-9.3137 -3.9865,-2.3262 3.9865,-2.3262 z m -9.6511,6.144 V 81.568 l 3.9155,2.2818 z m 0,1.6159 3.9155,2.2818 -3.9155,2.2818 z m 4.4038,-9.3492 v 4.7145 L 34.2467,80.76 Z m -5.2827,3.0898 v 4.7234 L 28.955,83.8498 Z m -4.0487,8.5501 4.0487,-2.3617 v 4.7234 z m 9.3314,0.7369 v 4.7146 l -4.0397,-2.3529 z"
         fill="#b2d530"
         id="path30" /><path
         d="m 65.1977,38.1604 c -0.1155,0 -0.2398,-0.0356 -0.3463,-0.0888 -0.2131,-0.1243 -0.3463,-0.3552 -0.3463,-0.5949 V 12.732 c 0,-0.2486 0.1332,-0.4795 0.3463,-0.5949 0.1065,-0.0622 0.222,-0.0888 0.3463,-0.0888 0.1243,0 0.2397,0.0355 0.3462,0.0977 L 86.755,24.505 c 0.2131,0.1243 0.3462,0.3552 0.3462,0.5949 0,0.2486 -0.1331,0.4706 -0.3462,0.5949 L 65.5528,38.0627 c -0.1065,0.0621 -0.2308,0.0977 -0.3551,0.0977 z M 65.8902,36.2692 85.0325,25.0999 65.8902,13.9306 Z"
         fill="#b2d530"
         id="path31" /><path
         d="m 65.1976,37.9117 c -0.0799,0 -0.1509,-0.0177 -0.222,-0.0621 -0.1332,-0.0799 -0.2219,-0.222 -0.2219,-0.3818 V 12.7319 c 0,-0.1598 0.0887,-0.3018 0.2219,-0.3817 0.1421,-0.0799 0.3019,-0.0799 0.444,0 l 21.2021,12.3679 c 0.1332,0.0799 0.222,0.222 0.222,0.3818 0,0.1598 -0.0799,0.3019 -0.222,0.3818 L 65.4196,37.8496 c -0.0622,0.0444 -0.1421,0.0621 -0.222,0.0621 z M 65.6415,13.5044 V 36.7042 L 85.5297,25.1088 Z"
         fill="#b2d530"
         id="path32" /></g></g></svg>
